// Create a simple favicon.ico file or use this SVG approach
// Save as frontend/public/favicon.svg
<svg width="32" height="32" viewBox="0 0 32 32" fill="none" xmlns="http://www.w3.org/2000/svg">
  <rect width="32" height="32" rx="8" fill="#3B82F6"/>
  <path d="M8 24V8h4.5c1.5 0 2.7.4 3.6 1.2.9.8 1.4 1.9 1.4 3.3 0 .8-.2 1.5-.5 2.1-.3.6-.8 1.1-1.4 1.4.7.3 1.3.8 1.7 1.5.4.7.6 1.5.6 2.4 0 1.5-.5 2.7-1.4 3.6-.9.9-2.1 1.3-3.6 1.3H8zm3-9.5h1.5c.5 0 .9-.1 1.2-.4.3-.3.4-.7.4-1.1 0-.4-.1-.8-.4-1.1-.3-.3-.7-.4-1.2-.4H11v3zm0 6.5h1.8c.6 0 1.1-.2 1.4-.5.3-.3.5-.8.5-1.3s-.2-1-.5-1.3c-.3-.3-.8-.5-1.4-.5H11V21z" fill="white"/>
</svg>